<?xml version="1.0" standalone="no"?><!DOCTYPE svg PUBLIC "-//W3C//DTD SVG 1.1//EN" "http://www.w3.org/Graphics/SVG/1.1/DTD/svg11.dtd"><svg t="1749287846258" class="icon" viewBox="0 0 1024 1024" version="1.1" xmlns="http://www.w3.org/2000/svg" p-id="1215" xmlns:xlink="http://www.w3.org/1999/xlink" width="200" height="200"><path d="M711.86 458.24C746.89 416.53 768 362.73 768 304c0-132.55-107.45-240-240-240H256v896h384c141.38 0 256-114.61 256-256 0-116.43-77.74-214.7-184.14-245.76zM352 160h176c79.53 0 144 64.47 144 144s-64.47 144-144 144H352V160z m448 544c0 88.37-71.63 160-160 160H352V544h288c88.37 0 160 71.63 160 160z" p-id="1216"></path></svg>