<?xml version="1.0" standalone="no"?><!DOCTYPE svg PUBLIC "-//W3C//DTD SVG 1.1//EN" "http://www.w3.org/Graphics/SVG/1.1/DTD/svg11.dtd"><svg t="1755606250810" class="icon" viewBox="0 0 1024 1024" version="1.1" xmlns="http://www.w3.org/2000/svg" p-id="5060" xmlns:xlink="http://www.w3.org/1999/xlink" width="200" height="200"><path d="M605.653333 209.386667a5.333333 5.333333 0 0 0-7.573333 0l-495.2 495.2a5.333333 5.333333 0 0 0-1.546667 3.786666V912a5.333333 5.333333 0 0 0 5.333334 5.333333h203.626666a5.333333 5.333333 0 0 0 3.786667-1.546666l495.2-495.2a5.333333 5.333333 0 0 0 0-7.573334zM281.6 842.666667H176v-105.6l425.866667-425.866667 105.6 105.6zM908.213333 314.08l-203.626666-203.626667a5.333333 5.333333 0 0 0-7.52 0L636.693333 170.666667a5.333333 5.333333 0 0 0 0 7.52l203.68 203.68a5.333333 5.333333 0 0 0 7.52 0l60.32-60.266667a5.333333 5.333333 0 0 0 0-7.52z" p-id="5061"></path></svg>