<?xml version="1.0" standalone="no"?><!DOCTYPE svg PUBLIC "-//W3C//DTD SVG 1.1//EN" "http://www.w3.org/Graphics/SVG/1.1/DTD/svg11.dtd"><svg t="1754395794776" class="icon" viewBox="0 0 1024 1024" version="1.1" xmlns="http://www.w3.org/2000/svg" p-id="2138" xmlns:xlink="http://www.w3.org/1999/xlink" width="200" height="200"><path d="M781.69183326 208.64550758h-134.81872559c-9.29937744 0-17.22930884 3.29754663-23.85406447 9.87780761-6.56048608 6.62475562-9.87780761 14.53491211-9.87780761 23.82934618V377.18127441c0 9.32409644 3.31732154 17.27380347 9.87780761 23.83428955 6.62475562 6.61486816 14.55468773 9.90252662 23.85406447 9.90252662h134.81872559c9.30432153 0 17.25402856-3.28765845 23.82934618-9.90252662 6.60992408-6.56048608 9.90252662-14.51019311 9.90252662-23.82934546V242.35266137c0-9.29937744-3.29260253-17.20953393-9.9074707-23.83428955-6.57037354-6.58026099-14.52008057-9.87780761-23.8244021-9.87780761m0 404.49078321h-134.81872559c-9.29937744 0-17.22930884 3.31237817-23.85406447 9.86792016-6.56048608 6.62969971-9.87780761 14.56457519-9.87780761 23.86395263v134.81872559c0 9.29443336 3.31732154 17.25897193 9.87780761 23.82934546 6.62475562 6.6049807 14.55468773 9.90252662 23.85406447 9.90252733h134.81872559c9.30432153 0 17.25402856-3.29754663 23.82934618-9.90252733 6.60992408-6.57037354 9.90252662-14.53491211 9.90252662-23.82934546v-134.81872559c0-9.29937744-3.29260253-17.23425293-9.9074707-23.86395263-6.57037354-6.5505979-14.52008057-9.86792016-23.8244021-9.86792016m-134.8385005-67.42419434h134.81872559c27.89318824 0 51.74725342 9.87780761 71.49298048 29.63342286 19.75561523 19.75561523 29.62353539 43.57012915 29.62353539 71.48803711v134.82861375c0 27.89318824-9.86792016 51.74725342-29.62353539 71.49298048-19.74572778 19.75561523-43.59979224 29.63342286-71.48803711 29.63342285h-134.81872559c-27.93768287 0-51.7521975-9.87780761-71.50781202-29.63342285-19.75561523-19.74572778-29.63342286-43.59979224-29.63342286-71.48803711v-134.82861304c0-27.92285133 9.87780761-51.73736596 29.63342286-71.49298119 19.75561523-19.75561523 43.57012915-29.63342286 71.50286865-29.63342286M377.19610596 208.64550758H242.36749291c-9.3092649 0-17.21942138 3.29754663-23.84417772 9.87780761-6.57531762 6.62475562-9.87780761 14.53491211-9.87780761 23.82934618V377.18127441c0 9.32409644 3.30743408 17.27380347 9.87780761 23.83428955 6.62475562 6.61486816 14.53491211 9.90252662 23.84417772 9.90252662h134.82861305c9.31420898 0 17.25402856-3.28765845 23.82934546-9.90252662 6.60992408-6.56048608 9.89263916-14.51019311 9.89263916-23.82934546V242.35266137c0-9.29937744-3.28271508-17.20953393-9.89758253-23.83428955-6.57037354-6.58026099-14.51019311-9.87780761-23.82440209-9.87780761M242.34771729 141.21142578H377.18127441c27.89318824 0 51.73736596 9.87780761 71.4929812 29.63342286 19.75561523 19.74572778 29.63342286 43.58990479 29.63342285 71.4880371v134.81872559c0 27.91296386-9.87780761 51.76208497-29.63342285 71.5127561-19.75561523 19.75561523-43.59979224 29.63342286-71.48803711 29.63342286H242.3427732c-27.91296386 0-51.76208497-9.87780761-71.50286866-29.63342286C151.08923339 428.9087522 141.21142578 405.06457519 141.21142578 377.15161133v-134.81872559c0-27.89813232 9.87780761-51.74230933 29.63342286-71.48803711C190.59057641 151.08923339 214.43475342 141.21142578 242.34771729 141.21142578m134.84838867 471.92486573H242.36749291c-9.3092649 0-17.21942138 3.31237817-23.84417772 9.86792015-6.57531762 6.62969971-9.87780761 14.56457519-9.87780761 23.86395264v134.81872559c0 9.29443336 3.30743408 17.25897193 9.87780761 23.82934546 6.62475562 6.6049807 14.53491211 9.90252662 23.84417772 9.90252662h134.82861305c9.31420898 0 17.25402856-3.29754663 23.82934546-9.90252662 6.60992408-6.57037354 9.89263916-14.53491211 9.89263916-23.82934546v-134.81872559c0-9.29937744-3.28271508-17.23425293-9.89758253-23.86395264-6.57037354-6.5505979-14.51019311-9.86792016-23.82440209-9.86792015M242.34771729 545.71209717H377.18127441c27.89318824 0 51.73736596 9.87780761 71.4929812 29.63342285 19.75561523 19.75561523 29.63342286 43.57012915 29.63342285 71.48803711v134.82861304c0 27.89318824-9.87780761 51.74725342-29.63342285 71.4929812-19.75561523 19.75561523-43.59979224 29.63342286-71.48803711 29.63342285H242.3427732c-27.91296386 0-51.76208497-9.87780761-71.50286866-29.63342285C151.08923339 833.40942359 141.21142578 809.55535913 141.21142578 781.66711426v-134.82861304c0-27.92285133 9.87780761-51.73736596 29.63342286-71.4929812 19.74572778-19.75561523 43.58990479-29.63342286 71.50286865-29.63342285M646.85333276 141.21142578h134.81872559c27.89318824 0 51.74725342 9.87780761 71.49298048 29.63342286C872.92065406 190.59057641 882.78857422 214.42980933 882.78857422 242.33288574v134.81872559c0 27.91296386-9.86792016 51.76208497-29.62353539 71.5127561-19.74572778 19.75561523-43.59979224 29.63342286-71.48803711 29.63342286h-134.81872559c-27.93768287 0-51.7521975-9.87780761-71.50781202-29.63342286-19.75561523-19.75561523-29.63342286-43.59979224-29.63342286-71.5127561v-134.81872559c0-27.89813232 9.87780761-51.74230933 29.63342286-71.4880371C595.10607934 151.08923339 618.92059326 141.21142578 646.85333276 141.21142578" p-id="2139"></path></svg>