<?xml version="1.0" standalone="no"?><!DOCTYPE svg PUBLIC "-//W3C//DTD SVG 1.1//EN" "http://www.w3.org/Graphics/SVG/1.1/DTD/svg11.dtd"><svg t="1749287854016" class="icon" viewBox="0 0 1024 1024" version="1.1" xmlns="http://www.w3.org/2000/svg" p-id="1551" xmlns:xlink="http://www.w3.org/1999/xlink" width="200" height="200"><path d="M960 448H464c-79.53 0-144-64.47-144-144s64.47-144 144-144h96c62.7 0 116.03 40.07 135.79 96h99.4C772.96 146.45 676.11 64 560 64h-96c-132.55 0-240 107.45-240 240 0 54.03 17.86 103.89 47.99 144H64v96h512c88.37 0 160 71.63 160 160s-71.63 160-160 160H448c-64.07 0-119.33-37.66-144.88-92.04H201.14C230.91 880.35 330.15 960 448 960h128c141.38 0 256-114.61 256-256 0-60.55-21.03-116.17-56.17-160H960v-96z" p-id="1552"></path></svg>