<?xml version="1.0" encoding="UTF-8"?>
<svg id="_レイヤー_2" data-name="レイヤー 2" xmlns="http://www.w3.org/2000/svg" viewBox="0 0 186.1 30.52">
  <defs>
    <style>
      .cls-1 {
        fill: #1d384a;
        stroke-width: 0px;
      }
    </style>
  </defs>
  <g id="Game_System" data-name="Game System">
    <g>
      <path class="cls-1" d="m13.76,30.52c-1.89,0-3.67-.38-5.34-1.13-1.67-.75-3.13-1.8-4.39-3.13-1.26-1.33-2.25-2.88-2.96-4.63-.71-1.75-1.07-3.63-1.07-5.63s.36-3.9,1.07-5.65c.71-1.75,1.7-3.29,2.96-4.62,1.26-1.33,2.72-2.37,4.39-3.12,1.67-.75,3.45-1.13,5.34-1.13,2.27,0,4.35.52,6.26,1.57,1.91,1.05,3.49,2.44,4.74,4.19l-4.36,2.34c-.79-.97-1.76-1.75-2.93-2.34s-2.4-.88-3.71-.88c-1.23,0-2.38.25-3.46.75s-2.03,1.19-2.84,2.08c-.81.89-1.45,1.91-1.9,3.08-.45,1.17-.68,2.41-.68,3.73s.23,2.58.69,3.74c.46,1.16,1.1,2.18,1.91,3.07.81.89,1.76,1.58,2.83,2.08s2.22.75,3.45.75c1.33,0,2.58-.3,3.73-.89,1.15-.59,2.12-1.38,2.91-2.35l4.36,2.36c-1.25,1.73-2.83,3.13-4.74,4.18-1.91,1.05-3.99,1.58-6.26,1.58Z"/>
      <path class="cls-1" d="m47.68,17.36v12.64h-4.88v-11.36c0-.79-.19-1.5-.58-2.15s-.9-1.16-1.55-1.54c-.65-.38-1.36-.57-2.15-.57s-1.5.19-2.15.57c-.65.38-1.16.89-1.54,1.54s-.57,1.36-.57,2.15v11.36h-4.88l-.02-30h4.88l.02,11.78c.68-.72,1.49-1.29,2.44-1.71.95-.42,1.97-.63,3.06-.63,1.45,0,2.78.36,3.98,1.07,1.2.71,2.16,1.67,2.87,2.86.71,1.19,1.07,2.52,1.07,3.99Z"/>
      <path class="cls-1" d="m66.96,10h4.88v20h-4.88l-.22-2.48c-.55.89-1.27,1.62-2.17,2.17-.9.55-1.96.83-3.19.83-1.48,0-2.87-.28-4.16-.84s-2.43-1.33-3.41-2.32c-.98-.99-1.75-2.13-2.3-3.42-.55-1.29-.83-2.68-.83-4.16s.26-2.77.79-4.02c.53-1.25,1.26-2.35,2.21-3.3.95-.95,2.04-1.69,3.28-2.22,1.24-.53,2.57-.8,4-.8,1.32,0,2.5.29,3.55.88,1.05.59,1.94,1.33,2.67,2.24l-.22-2.56Zm-5.7,15.82c1.04,0,1.96-.26,2.76-.78.8-.52,1.43-1.22,1.88-2.11.45-.89.68-1.86.68-2.93s-.23-2.06-.68-2.95c-.45-.89-1.08-1.59-1.89-2.11s-1.72-.78-2.75-.78-1.96.26-2.81.79c-.85.53-1.52,1.23-2.02,2.11s-.75,1.86-.75,2.94.25,2.06.76,2.94c.51.88,1.18,1.58,2.03,2.1s1.78.78,2.79.78Z"/>
      <path class="cls-1" d="m76.06,30l-.02-20h4.88l.02,1.78c.68-.72,1.49-1.29,2.44-1.71.95-.42,1.97-.63,3.06-.63.73,0,1.47.11,2.2.32l-1.92,4.92c-.51-.2-1.01-.3-1.52-.3-.79,0-1.5.19-2.15.57-.65.38-1.16.89-1.54,1.54s-.57,1.36-.57,2.15v11.36h-4.88Z"/>
      <path class="cls-1" d="m106.72,10h4.88v20h-4.88l-.22-2.48c-.55.89-1.27,1.62-2.17,2.17-.9.55-1.96.83-3.19.83-1.48,0-2.87-.28-4.16-.84s-2.43-1.33-3.41-2.32c-.98-.99-1.75-2.13-2.3-3.42-.55-1.29-.83-2.68-.83-4.16s.26-2.77.79-4.02c.53-1.25,1.26-2.35,2.21-3.3.95-.95,2.04-1.69,3.28-2.22,1.24-.53,2.57-.8,4-.8,1.32,0,2.5.29,3.55.88,1.05.59,1.94,1.33,2.67,2.24l-.22-2.56Zm-5.7,15.82c1.04,0,1.96-.26,2.76-.78.8-.52,1.43-1.22,1.88-2.11.45-.89.68-1.86.68-2.93s-.23-2.06-.68-2.95c-.45-.89-1.08-1.59-1.89-2.11s-1.72-.78-2.75-.78-1.96.26-2.81.79c-.85.53-1.52,1.23-2.02,2.11s-.75,1.86-.75,2.94.25,2.06.76,2.94c.51.88,1.18,1.58,2.03,2.1s1.78.78,2.79.78Z"/>
      <path class="cls-1" d="m128.2,23.98l4.4,2.38c-.92,1.25-2.07,2.26-3.46,3.02s-2.9,1.14-4.54,1.14c-1.84,0-3.52-.47-5.03-1.42-1.51-.95-2.72-2.22-3.62-3.81-.9-1.59-1.35-3.36-1.35-5.29,0-1.47.26-2.84.78-4.11.52-1.27,1.24-2.39,2.15-3.36.91-.97,1.98-1.72,3.19-2.27,1.21-.55,2.51-.82,3.88-.82,1.64,0,3.15.38,4.54,1.14,1.39.76,2.54,1.78,3.46,3.06l-4.4,2.36c-.47-.53-1.02-.95-1.65-1.24-.63-.29-1.28-.44-1.95-.44-.96,0-1.83.26-2.6.79-.77.53-1.39,1.22-1.84,2.08s-.68,1.8-.68,2.81.23,1.93.68,2.79,1.07,1.55,1.84,2.07,1.64.78,2.6.78c.69,0,1.35-.15,1.98-.45.63-.3,1.17-.7,1.62-1.21Z"/>
      <path class="cls-1" d="m147.12,14.88h-3.88v15.12h-4.88v-15.12h-2.96v-4.88h2.96V3.72h4.88v6.28h3.88v4.88Z"/>
      <path class="cls-1" d="m159.72,30.52c-1.84,0-3.52-.47-5.03-1.42-1.51-.95-2.72-2.22-3.62-3.82-.9-1.6-1.35-3.37-1.35-5.3,0-1.45.26-2.82.78-4.09.52-1.27,1.24-2.39,2.15-3.36.91-.97,1.98-1.72,3.19-2.27,1.21-.55,2.51-.82,3.88-.82,1.56,0,2.99.33,4.29.99,1.3.66,2.4,1.56,3.31,2.71.91,1.15,1.57,2.45,1.98,3.92.41,1.47.51,3,.28,4.6h-14.62c.19.75.49,1.42.92,2.01.43.59.97,1.07,1.62,1.42.65.35,1.39.54,2.22.55.85.01,1.63-.19,2.33-.61.7-.42,1.28-.99,1.75-1.71l4.98,1.16c-.81,1.77-2.03,3.22-3.64,4.35-1.61,1.13-3.42,1.69-5.42,1.69Zm-4.92-12.52h9.84c-.15-.8-.46-1.52-.93-2.17-.47-.65-1.06-1.16-1.75-1.55-.69-.39-1.44-.58-2.24-.58s-1.54.19-2.22.57c-.68.38-1.26.89-1.73,1.54-.47.65-.8,1.38-.97,2.19Z"/>
      <path class="cls-1" d="m173.52,30l-.02-20h4.88l.02,1.78c.68-.72,1.49-1.29,2.44-1.71.95-.42,1.97-.63,3.06-.63.73,0,1.47.11,2.2.32l-1.92,4.92c-.51-.2-1.01-.3-1.52-.3-.79,0-1.5.19-2.15.57-.65.38-1.16.89-1.54,1.54s-.57,1.36-.57,2.15v11.36h-4.88Z"/>
    </g>
  </g>
</svg>