<svg width="35" height="16" viewBox="0 0 35 16" fill="none" xmlns="http://www.w3.org/2000/svg">
<path d="M0.2 15V0.999999H4.84C5.80667 0.999999 6.71 1.18333 7.55 1.55C8.39667 1.91 9.14 2.41333 9.78 3.06C10.4267 3.7 10.93 4.44333 11.29 5.29C11.6567 6.13 11.84 7.03333 11.84 8C11.84 8.96667 11.6567 9.87333 11.29 10.72C10.93 11.56 10.4267 12.3033 9.78 12.95C9.14 13.59 8.39667 14.0933 7.55 14.46C6.71 14.82 5.80667 15 4.84 15H0.2ZM2.64 12.56H4.84C5.46 12.56 6.04333 12.4433 6.59 12.21C7.14333 11.97 7.63 11.6433 8.05 11.23C8.47 10.81 8.8 10.3267 9.04 9.78C9.28 9.22667 9.4 8.63333 9.4 8C9.4 7.36667 9.28 6.77667 9.04 6.23C8.8 5.68333 8.47 5.2 8.05 4.78C7.63 4.36 7.14667 4.03333 6.6 3.8C6.05333 3.56 5.46667 3.44 4.84 3.44H2.64V12.56ZM13.4617 15V0.999999H15.9017V12.56H21.7317V15H13.4617ZM29.3167 15.26C28.3701 15.26 27.4801 15.0733 26.6467 14.7C25.8134 14.32 25.0801 13.7967 24.4467 13.13C23.8201 12.4633 23.3267 11.6933 22.9667 10.82C22.6134 9.94 22.4367 9 22.4367 8C22.4367 6.99333 22.6134 6.05333 22.9667 5.18C23.3267 4.3 23.8201 3.53 24.4467 2.87C25.0801 2.20333 25.8134 1.68333 26.6467 1.31C27.4801 0.929999 28.3701 0.739999 29.3167 0.739999C30.4501 0.739999 31.4934 1.00333 32.4467 1.53C33.4001 2.05 34.1901 2.74667 34.8167 3.62L32.6367 4.79C32.2434 4.30333 31.7534 3.91333 31.1667 3.62C30.5867 3.32667 29.9701 3.18 29.3167 3.18C28.7034 3.18 28.1267 3.30667 27.5867 3.56C27.0467 3.80667 26.5734 4.15333 26.1667 4.6C25.7601 5.04 25.4434 5.55333 25.2167 6.14C24.9901 6.72 24.8767 7.34 24.8767 8C24.8767 8.66667 24.9901 9.29 25.2167 9.87C25.4501 10.45 25.7701 10.9633 26.1767 11.41C26.5834 11.85 27.0534 12.1967 27.5867 12.45C28.1267 12.6967 28.7034 12.82 29.3167 12.82C29.9834 12.82 30.6034 12.6733 31.1767 12.38C31.7567 12.08 32.2434 11.6867 32.6367 11.2L34.8167 12.38C34.1901 13.2467 33.4001 13.9433 32.4467 14.47C31.4934 14.9967 30.4501 15.26 29.3167 15.26Z" fill="#1d384a"/>
</svg>
