<svg width="136" height="19" viewBox="0 0 136 19" fill="none" xmlns="http://www.w3.org/2000/svg">
<path d="M0.2 14V-9.53674e-07H8.98V2.44H2.64V5.28H7.67V7.72H2.64V11.56H8.98V14H0.2ZM10.1906 14L13.8506 8.98L10.2206 3.99H13.2306L15.3506 6.9L17.4806 3.99H20.4906L16.8606 8.98L20.5206 14H17.5106L15.3506 11.04L13.2006 14H10.1906ZM24.4955 19H22.0555V4H24.4955V5.27C24.8221 4.81667 25.2221 4.45 25.6955 4.17C26.1755 3.88333 26.7355 3.74 27.3755 3.74C28.1088 3.74 28.7921 3.87667 29.4255 4.15C30.0588 4.42333 30.6155 4.80333 31.0955 5.29C31.5821 5.77 31.9588 6.32667 32.2255 6.96C32.4988 7.59333 32.6355 8.27333 32.6355 9C32.6355 9.72667 32.4988 10.41 32.2255 11.05C31.9588 11.69 31.5821 12.2533 31.0955 12.74C30.6155 13.22 30.0588 13.5967 29.4255 13.87C28.7921 14.1433 28.1088 14.28 27.3755 14.28C26.7355 14.28 26.1755 14.14 25.6955 13.86C25.2221 13.5733 24.8221 13.2033 24.4955 12.75V19ZM27.3455 6.09C26.8388 6.09 26.3855 6.22333 25.9855 6.49C25.5855 6.75 25.2721 7.1 25.0455 7.54C24.8188 7.98 24.7055 8.46667 24.7055 9C24.7055 9.53333 24.8188 10.0233 25.0455 10.47C25.2721 10.91 25.5855 11.2633 25.9855 11.53C26.3855 11.79 26.8388 11.92 27.3455 11.92C27.8588 11.92 28.3288 11.79 28.7555 11.53C29.1821 11.27 29.5221 10.92 29.7755 10.48C30.0288 10.0333 30.1555 9.54 30.1555 9C30.1555 8.46667 30.0288 7.98 29.7755 7.54C29.5221 7.1 29.1821 6.75 28.7555 6.49C28.3355 6.22333 27.8655 6.09 27.3455 6.09ZM41.783 4H44.223V14H41.783L41.673 12.76C41.3996 13.2067 41.0363 13.57 40.583 13.85C40.1363 14.1233 39.6063 14.26 38.993 14.26C38.253 14.26 37.5596 14.12 36.913 13.84C36.2663 13.56 35.6963 13.1733 35.203 12.68C34.7163 12.1867 34.333 11.6167 34.053 10.97C33.7796 10.3233 33.643 9.63 33.643 8.89C33.643 8.17667 33.773 7.50667 34.033 6.88C34.2996 6.25333 34.6696 5.70333 35.143 5.23C35.6163 4.75667 36.163 4.38667 36.783 4.12C37.403 3.85333 38.0696 3.72 38.783 3.72C39.443 3.72 40.033 3.86667 40.553 4.16C41.0796 4.45333 41.5263 4.82667 41.893 5.28L41.783 4ZM38.933 11.91C39.453 11.91 39.913 11.78 40.313 11.52C40.713 11.26 41.0263 10.91 41.253 10.47C41.4796 10.0233 41.593 9.53333 41.593 9C41.593 8.46 41.4796 7.97 41.253 7.53C41.0263 7.08333 40.7096 6.73 40.303 6.47C39.903 6.21 39.4463 6.08 38.933 6.08C38.4196 6.08 37.9496 6.21333 37.523 6.48C37.103 6.74 36.7663 7.09 36.513 7.53C36.2663 7.97 36.143 8.46 36.143 9C36.143 9.54 36.2696 10.03 36.523 10.47C36.7763 10.91 37.113 11.26 37.533 11.52C37.9596 11.78 38.4263 11.91 38.933 11.91ZM55.3756 7.68V14H52.9356V8.32C52.9356 7.92667 52.839 7.57 52.6456 7.25C52.4523 6.92333 52.1923 6.66667 51.8656 6.48C51.5456 6.28667 51.189 6.19 50.7956 6.19C50.4023 6.19 50.0423 6.28667 49.7156 6.48C49.3956 6.66667 49.139 6.92333 48.9456 7.25C48.759 7.57 48.6656 7.92667 48.6656 8.32V14H46.2256L46.2156 4H48.6556L48.6656 4.89C49.0056 4.53 49.4123 4.24667 49.8856 4.04C50.359 3.82667 50.869 3.72 51.4156 3.72C52.1423 3.72 52.8056 3.9 53.4056 4.26C54.0056 4.61333 54.4823 5.09 54.8356 5.69C55.1956 6.28333 55.3756 6.94667 55.3756 7.68ZM60.318 14.18C59.798 14.1467 59.2946 14.0433 58.808 13.87C58.328 13.69 57.9013 13.4467 57.528 13.14C57.1546 12.8333 56.868 12.4667 56.668 12.04L58.728 11.16C58.808 11.2933 58.938 11.4367 59.118 11.59C59.298 11.7367 59.5113 11.86 59.758 11.96C60.0113 12.06 60.288 12.11 60.588 12.11C60.8413 12.11 61.0813 12.0767 61.308 12.01C61.5413 11.9367 61.728 11.8267 61.868 11.68C62.0146 11.5333 62.088 11.3433 62.088 11.11C62.088 10.8633 62.0013 10.6733 61.828 10.54C61.6613 10.4 61.448 10.2967 61.188 10.23C60.9346 10.1567 60.688 10.09 60.448 10.03C59.8146 9.90333 59.2246 9.70667 58.678 9.44C58.138 9.17333 57.7013 8.83 57.368 8.41C57.0413 7.98333 56.878 7.47 56.878 6.87C56.878 6.21 57.0513 5.64 57.398 5.16C57.7513 4.68 58.208 4.31 58.768 4.05C59.3346 3.79 59.9446 3.66 60.598 3.66C61.3913 3.66 62.118 3.82667 62.778 4.16C63.4446 4.48667 63.9713 4.95 64.358 5.55L62.428 6.69C62.3346 6.53 62.2046 6.38333 62.038 6.25C61.8713 6.11 61.6813 5.99667 61.468 5.91C61.2546 5.81667 61.0313 5.76333 60.798 5.75C60.498 5.73667 60.2246 5.76333 59.978 5.83C59.7313 5.89667 59.5313 6.01 59.378 6.17C59.2313 6.33 59.158 6.54333 59.158 6.81C59.158 7.06333 59.258 7.25333 59.458 7.38C59.658 7.5 59.898 7.59333 60.178 7.66C60.4646 7.72667 60.738 7.8 60.998 7.88C61.5846 8.07333 62.1346 8.31 62.648 8.59C63.168 8.87 63.5846 9.21333 63.898 9.62C64.2113 10.0267 64.3613 10.5133 64.348 11.08C64.348 11.7267 64.1546 12.2933 63.768 12.78C63.3813 13.26 62.8813 13.6267 62.268 13.88C61.6613 14.1333 61.0113 14.2333 60.318 14.18ZM65.825 4H68.265V14H65.825V4ZM67.065 2.71C66.705 2.71 66.4017 2.59333 66.155 2.36C65.9083 2.12 65.785 1.82 65.785 1.46C65.785 1.10667 65.9083 0.81 66.155 0.569999C66.4017 0.329999 66.7017 0.209999 67.055 0.209999C67.4083 0.209999 67.705 0.329999 67.945 0.569999C68.1917 0.81 68.315 1.10667 68.315 1.46C68.315 1.82 68.195 2.12 67.955 2.36C67.715 2.59333 67.4183 2.71 67.065 2.71ZM74.8344 14.26C73.9144 14.26 73.0744 14.0233 72.3144 13.55C71.561 13.0767 70.9577 12.4433 70.5044 11.65C70.0577 10.85 69.8344 9.96667 69.8344 9C69.8344 8.26667 69.9644 7.58333 70.2244 6.95C70.4844 6.31 70.841 5.75 71.2944 5.27C71.7544 4.78333 72.2877 4.40333 72.8944 4.13C73.501 3.85667 74.1477 3.72 74.8344 3.72C75.7544 3.72 76.591 3.95667 77.3444 4.43C78.1044 4.90333 78.7077 5.54 79.1544 6.34C79.6077 7.14 79.8344 8.02667 79.8344 9C79.8344 9.72667 79.7044 10.4067 79.4444 11.04C79.1844 11.6733 78.8244 12.2333 78.3644 12.72C77.911 13.2 77.381 13.5767 76.7744 13.85C76.1744 14.1233 75.5277 14.26 74.8344 14.26ZM74.8344 11.82C75.321 11.82 75.7577 11.69 76.1444 11.43C76.531 11.17 76.8344 10.8267 77.0544 10.4C77.281 9.97333 77.3944 9.50667 77.3944 9C77.3944 8.48 77.2777 8.00667 77.0444 7.58C76.8177 7.14667 76.5077 6.80333 76.1144 6.55C75.7277 6.29 75.301 6.16 74.8344 6.16C74.3544 6.16 73.921 6.29 73.5344 6.55C73.1477 6.81 72.841 7.15667 72.6144 7.59C72.3877 8.02333 72.2744 8.49333 72.2744 9C72.2744 9.52667 72.391 10.0033 72.6244 10.43C72.8577 10.8567 73.1677 11.1967 73.5544 11.45C73.9477 11.6967 74.3744 11.82 74.8344 11.82ZM90.5514 7.68V14H88.1114V8.32C88.1114 7.92667 88.0147 7.57 87.8214 7.25C87.6281 6.92333 87.3681 6.66667 87.0414 6.48C86.7214 6.28667 86.3647 6.19 85.9714 6.19C85.5781 6.19 85.2181 6.28667 84.8914 6.48C84.5714 6.66667 84.3147 6.92333 84.1214 7.25C83.9347 7.57 83.8414 7.92667 83.8414 8.32V14H81.4014L81.3914 4H83.8314L83.8414 4.89C84.1814 4.53 84.5881 4.24667 85.0614 4.04C85.5347 3.82667 86.0447 3.72 86.5914 3.72C87.3181 3.72 87.9814 3.9 88.5814 4.26C89.1814 4.61333 89.6581 5.09 90.0114 5.69C90.3714 6.28333 90.5514 6.94667 90.5514 7.68ZM97.3484 14V-9.53674e-07H102.348C103.108 -9.53674e-07 103.795 0.189999 104.408 0.569999C105.028 0.95 105.518 1.46 105.878 2.1C106.238 2.74 106.418 3.44333 106.418 4.21C106.418 4.99667 106.232 5.71 105.858 6.35C105.492 6.98333 104.998 7.49 104.378 7.87C103.758 8.24333 103.082 8.43 102.348 8.43H99.7884V14H97.3484ZM99.7884 5.99H102.088C102.435 5.99 102.752 5.90333 103.038 5.73C103.325 5.55667 103.552 5.32333 103.718 5.03C103.892 4.73667 103.978 4.41 103.978 4.05C103.978 3.68333 103.892 3.35333 103.718 3.06C103.552 2.76667 103.325 2.53333 103.038 2.36C102.752 2.18667 102.435 2.1 102.088 2.1H99.7884V5.99ZM115.084 4H117.524V14H115.084L114.974 12.76C114.7 13.2067 114.337 13.57 113.884 13.85C113.437 14.1233 112.907 14.26 112.294 14.26C111.554 14.26 110.86 14.12 110.214 13.84C109.567 13.56 108.997 13.1733 108.504 12.68C108.017 12.1867 107.634 11.6167 107.354 10.97C107.08 10.3233 106.944 9.63 106.944 8.89C106.944 8.17667 107.074 7.50667 107.334 6.88C107.6 6.25333 107.97 5.70333 108.444 5.23C108.917 4.75667 109.464 4.38667 110.084 4.12C110.704 3.85333 111.37 3.72 112.084 3.72C112.744 3.72 113.334 3.86667 113.854 4.16C114.38 4.45333 114.827 4.82667 115.194 5.28L115.084 4ZM112.234 11.91C112.754 11.91 113.214 11.78 113.614 11.52C114.014 11.26 114.327 10.91 114.554 10.47C114.78 10.0233 114.894 9.53333 114.894 9C114.894 8.46 114.78 7.97 114.554 7.53C114.327 7.08333 114.01 6.73 113.604 6.47C113.204 6.21 112.747 6.08 112.234 6.08C111.72 6.08 111.25 6.21333 110.824 6.48C110.404 6.74 110.067 7.09 109.814 7.53C109.567 7.97 109.444 8.46 109.444 9C109.444 9.54 109.57 10.03 109.824 10.47C110.077 10.91 110.414 11.26 110.834 11.52C111.26 11.78 111.727 11.91 112.234 11.91ZM122.466 14.18C121.946 14.1467 121.443 14.0433 120.956 13.87C120.476 13.69 120.05 13.4467 119.676 13.14C119.303 12.8333 119.016 12.4667 118.816 12.04L120.876 11.16C120.956 11.2933 121.086 11.4367 121.266 11.59C121.446 11.7367 121.66 11.86 121.906 11.96C122.16 12.06 122.436 12.11 122.736 12.11C122.99 12.11 123.23 12.0767 123.456 12.01C123.69 11.9367 123.876 11.8267 124.016 11.68C124.163 11.5333 124.236 11.3433 124.236 11.11C124.236 10.8633 124.15 10.6733 123.976 10.54C123.81 10.4 123.596 10.2967 123.336 10.23C123.083 10.1567 122.836 10.09 122.596 10.03C121.963 9.90333 121.373 9.70667 120.826 9.44C120.286 9.17333 119.85 8.83 119.516 8.41C119.19 7.98333 119.026 7.47 119.026 6.87C119.026 6.21 119.2 5.64 119.546 5.16C119.9 4.68 120.356 4.31 120.916 4.05C121.483 3.79 122.093 3.66 122.746 3.66C123.54 3.66 124.266 3.82667 124.926 4.16C125.593 4.48667 126.12 4.95 126.506 5.55L124.576 6.69C124.483 6.53 124.353 6.38333 124.186 6.25C124.02 6.11 123.83 5.99667 123.616 5.91C123.403 5.81667 123.18 5.76333 122.946 5.75C122.646 5.73667 122.373 5.76333 122.126 5.83C121.88 5.89667 121.68 6.01 121.526 6.17C121.38 6.33 121.306 6.54333 121.306 6.81C121.306 7.06333 121.406 7.25333 121.606 7.38C121.806 7.5 122.046 7.59333 122.326 7.66C122.613 7.72667 122.886 7.8 123.146 7.88C123.733 8.07333 124.283 8.31 124.796 8.59C125.316 8.87 125.733 9.21333 126.046 9.62C126.36 10.0267 126.51 10.5133 126.496 11.08C126.496 11.7267 126.303 12.2933 125.916 12.78C125.53 13.26 125.03 13.6267 124.416 13.88C123.81 14.1333 123.16 14.2333 122.466 14.18ZM131.158 14.18C130.638 14.1467 130.134 14.0433 129.648 13.87C129.168 13.69 128.741 13.4467 128.368 13.14C127.994 12.8333 127.708 12.4667 127.508 12.04L129.568 11.16C129.648 11.2933 129.778 11.4367 129.958 11.59C130.138 11.7367 130.351 11.86 130.598 11.96C130.851 12.06 131.128 12.11 131.428 12.11C131.681 12.11 131.921 12.0767 132.148 12.01C132.381 11.9367 132.568 11.8267 132.708 11.68C132.854 11.5333 132.928 11.3433 132.928 11.11C132.928 10.8633 132.841 10.6733 132.668 10.54C132.501 10.4 132.288 10.2967 132.028 10.23C131.774 10.1567 131.528 10.09 131.288 10.03C130.654 9.90333 130.064 9.70667 129.518 9.44C128.978 9.17333 128.541 8.83 128.208 8.41C127.881 7.98333 127.718 7.47 127.718 6.87C127.718 6.21 127.891 5.64 128.238 5.16C128.591 4.68 129.048 4.31 129.608 4.05C130.174 3.79 130.784 3.66 131.438 3.66C132.231 3.66 132.958 3.82667 133.618 4.16C134.284 4.48667 134.811 4.95 135.198 5.55L133.268 6.69C133.174 6.53 133.044 6.38333 132.878 6.25C132.711 6.11 132.521 5.99667 132.308 5.91C132.094 5.81667 131.871 5.76333 131.638 5.75C131.338 5.73667 131.064 5.76333 130.818 5.83C130.571 5.89667 130.371 6.01 130.218 6.17C130.071 6.33 129.998 6.54333 129.998 6.81C129.998 7.06333 130.098 7.25333 130.298 7.38C130.498 7.5 130.738 7.59333 131.018 7.66C131.304 7.72667 131.578 7.8 131.838 7.88C132.424 8.07333 132.974 8.31 133.488 8.59C134.008 8.87 134.424 9.21333 134.738 9.62C135.051 10.0267 135.201 10.5133 135.188 11.08C135.188 11.7267 134.994 12.2933 134.608 12.78C134.221 13.26 133.721 13.6267 133.108 13.88C132.501 14.1333 131.851 14.2333 131.158 14.18Z" fill="#1D384A"/>
</svg>
