<?xml version="1.0" encoding="UTF-8"?>
<svg id="_レイヤー_2" data-name="レイヤー 2" xmlns="http://www.w3.org/2000/svg" viewBox="0 0 154.68 28.52">
  <defs>
    <style>
      .cls-1 {
        fill: #1d384a;
        stroke-width: 0px;
      }
    </style>
  </defs>
  <g id="Game_System" data-name="Game System">
    <g>
      <path class="cls-1" d="m0,28V0h16.54v4.88H4.88v5.68h9.74v4.88H4.88v12.56H0Z"/>
      <path class="cls-1" d="m28.34,28.52c-1.84,0-3.52-.47-5.03-1.42-1.51-.95-2.72-2.22-3.62-3.82-.9-1.6-1.35-3.37-1.35-5.3,0-1.45.26-2.82.78-4.09.52-1.27,1.24-2.39,2.15-3.36.91-.97,1.98-1.72,3.19-2.27,1.21-.55,2.51-.82,3.88-.82,1.56,0,2.99.33,4.29.99,1.3.66,2.4,1.56,3.31,2.71.91,1.15,1.57,2.45,1.98,3.92.41,1.47.51,3,.28,4.6h-14.62c.19.75.49,1.42.92,2.01.43.59.97,1.07,1.62,1.42.65.35,1.39.54,2.22.55.85.01,1.63-.19,2.33-.61.7-.42,1.28-.99,1.75-1.71l4.98,1.16c-.81,1.77-2.03,3.22-3.64,4.35-1.61,1.13-3.42,1.69-5.42,1.69Zm-4.92-12.52h9.84c-.15-.8-.46-1.52-.93-2.17-.45-.62-1.01-1.12-1.66-1.5-.69-.4-1.48-.62-2.28-.63s-1.58.18-2.27.57c-.68.38-1.26.89-1.73,1.54-.47.65-.8,1.38-.97,2.19Z"/>
      <path class="cls-1" d="m57.2,8h4.88v20h-4.88l-.22-2.48c-.55.89-1.27,1.62-2.17,2.17-.9.55-1.96.83-3.19.83-1.48,0-2.87-.28-4.16-.84s-2.43-1.33-3.41-2.32c-.98-.99-1.75-2.13-2.3-3.42-.55-1.29-.83-2.68-.83-4.16s.26-2.77.79-4.02c.53-1.25,1.26-2.35,2.21-3.3.95-.95,2.04-1.69,3.28-2.22,1.24-.53,2.57-.8,4-.8,1.32,0,2.5.29,3.55.88,1.05.59,1.94,1.33,2.67,2.24l-.22-2.56Zm-5.7,15.82c1.04,0,1.96-.26,2.76-.78.8-.52,1.43-1.22,1.88-2.11.45-.89.68-1.86.68-2.93s-.23-2.06-.68-2.95c-.45-.89-1.08-1.59-1.89-2.11s-1.72-.78-2.75-.78-1.96.26-2.81.79c-.85.53-1.52,1.23-2.02,2.11s-.75,1.86-.75,2.94.25,2.06.76,2.94c.51.88,1.18,1.58,2.03,2.1s1.78.78,2.79.78Z"/>
      <path class="cls-1" d="m77,12.88h-3.88v15.12h-4.88v-15.12h-2.96v-4.88h2.96V1.72h4.88v6.28h3.88v4.88Z"/>
      <path class="cls-1" d="m80,20.6v-12.6h4.88v11.32c0,.79.19,1.5.58,2.15s.9,1.16,1.55,1.54c.65.38,1.36.57,2.13.57s1.52-.19,2.16-.57c.64-.38,1.15-.89,1.54-1.54.39-.65.58-1.36.58-2.15v-11.32h4.88l.02,20h-4.88l-.02-1.82c-.69.72-1.51,1.29-2.46,1.71-.95.42-1.96.63-3.04.63-1.45,0-2.78-.36-3.98-1.07-1.2-.71-2.16-1.67-2.87-2.86-.71-1.19-1.07-2.52-1.07-3.99Z"/>
      <path class="cls-1" d="m102.54,28l-.02-20h4.88l.02,1.78c.68-.72,1.49-1.29,2.44-1.71.95-.42,1.96-.63,3.06-.63.73,0,1.47.11,2.2.32l-1.92,4.92c-.51-.2-1.01-.3-1.52-.3-.79,0-1.5.19-2.15.57-.65.38-1.16.89-1.54,1.54-.38.65-.57,1.36-.57,2.15v11.36h-4.88Z"/>
      <path class="cls-1" d="m126.92,28.52c-1.84,0-3.52-.47-5.03-1.42-1.51-.95-2.72-2.22-3.62-3.82-.9-1.6-1.35-3.37-1.35-5.3,0-1.45.26-2.82.78-4.09s1.24-2.39,2.15-3.36c.91-.97,1.98-1.72,3.19-2.27,1.21-.55,2.51-.82,3.88-.82,1.56,0,2.99.33,4.29.99,1.3.66,2.4,1.56,3.31,2.71.91,1.15,1.57,2.45,1.98,3.92.41,1.47.51,3,.28,4.6h-14.62c.19.75.49,1.42.92,2.01.43.59.97,1.07,1.62,1.42.65.35,1.39.54,2.22.55.85.01,1.63-.19,2.33-.61.7-.42,1.28-.99,1.75-1.71l4.98,1.16c-.81,1.77-2.03,3.22-3.64,4.35-1.61,1.13-3.42,1.69-5.42,1.69Zm-4.92-12.52h9.84c-.15-.8-.46-1.52-.93-2.17-.45-.62-1-1.12-1.66-1.5-.69-.4-1.48-.62-2.27-.63s-1.58.18-2.28.57-1.26.89-1.73,1.54c-.47.65-.8,1.38-.97,2.19Z"/>
      <path class="cls-1" d="m146.6,28.36c-1.04-.07-2.04-.28-3.01-.63s-1.82-.84-2.57-1.45c-.75-.61-1.32-1.35-1.72-2.2l4.12-1.76c.16.27.42.55.78.85.36.3.79.55,1.29.75.5.2,1.05.3,1.65.3.51,0,.99-.07,1.45-.21.46-.14.83-.36,1.12-.65.29-.29.43-.67.43-1.14,0-.49-.17-.88-.51-1.15-.34-.27-.77-.48-1.28-.62-.51-.14-1.01-.27-1.49-.39-1.27-.25-2.44-.65-3.53-1.18-1.09-.53-1.96-1.22-2.62-2.07-.66-.85-.99-1.87-.99-3.07,0-1.32.35-2.46,1.05-3.42s1.61-1.7,2.74-2.22,2.34-.78,3.65-.78c1.59,0,3.04.33,4.37.99,1.33.66,2.38,1.59,3.15,2.79l-3.86,2.28c-.19-.32-.45-.62-.78-.89-.45-.36-.97-.65-1.58-.85-.22-.07-.45-.11-.68-.13-.69-.05-1.31,0-1.86.15-.49.13-.89.36-1.19.68-.3.32-.45.75-.45,1.28s.2.88.6,1.13c.4.25.88.44,1.45.57.57.13,1.11.28,1.63.44,1.17.39,2.28.86,3.31,1.42,1.03.56,1.86,1.25,2.49,2.06s.93,1.79.9,2.92c0,1.29-.39,2.42-1.16,3.39-.77.97-1.77,1.7-2.99,2.21-1.22.51-2.52.71-3.91.6Z"/>
    </g>
  </g>
</svg>