<?xml version="1.0" encoding="UTF-8"?>
<svg id="_レイヤー_2" data-name="レイヤー 2" xmlns="http://www.w3.org/2000/svg" viewBox="0 0 258.52 38.48">
  <defs>
    <style>
      .cls-1 {
        fill: #1d384a;
        stroke-width: 0px;
      }
    </style>
  </defs>
  <g id="Game_System" data-name="Game System">
    <g>
      <path class="cls-1" d="m13.76,29c-1.95,0-3.76-.38-5.43-1.14-1.67-.76-3.13-1.81-4.37-3.15s-2.21-2.89-2.91-4.64c-.7-1.75-1.05-3.63-1.05-5.63,0-2.11.38-4.04,1.13-5.8.75-1.76,1.78-3.29,3.09-4.58,1.31-1.29,2.79-2.29,4.45-3,1.66-.71,3.39-1.06,5.19-1.06,2.01,0,3.97.47,5.87,1.41s3.58,2.39,5.03,4.35l-4.36,2.34c-.89-1.09-1.92-1.91-3.07-2.45-1.15-.54-2.33-.81-3.53-.81s-2.3.24-3.37.72c-1.07.48-2.03,1.16-2.86,2.03-.83.87-1.49,1.9-1.97,3.08s-.72,2.47-.72,3.87c0,1.32.23,2.56.7,3.73.47,1.17,1.11,2.19,1.93,3.06.82.87,1.77,1.56,2.85,2.05,1.08.49,2.24.74,3.48.74.83,0,1.64-.13,2.43-.39.79-.26,1.54-.64,2.24-1.13.7-.49,1.33-1.09,1.88-1.8.55-.71,1.02-1.51,1.39-2.4h-5.1v-4.26h10.84c.05,2.04-.27,3.95-.96,5.74-.69,1.79-1.67,3.37-2.94,4.74-1.27,1.37-2.74,2.45-4.42,3.22s-3.49,1.16-5.44,1.16Z"/>
      <path class="cls-1" d="m46.82,8.48h4.88v20h-4.88l-.22-2.48c-.55.89-1.27,1.62-2.17,2.17s-1.96.83-3.19.83c-1.48,0-2.87-.28-4.16-.84-1.29-.56-2.43-1.33-3.41-2.32-.98-.99-1.75-2.13-2.3-3.42-.55-1.29-.83-2.68-.83-4.16s.26-2.77.79-4.02c.53-1.25,1.26-2.35,2.21-3.3.95-.95,2.04-1.69,3.28-2.22,1.24-.53,2.57-.8,4-.8,1.32,0,2.5.29,3.55.88,1.05.59,1.94,1.33,2.67,2.24l-.22-2.56Zm-5.7,15.82c1.04,0,1.96-.26,2.76-.78.8-.52,1.43-1.22,1.88-2.11.45-.89.68-1.86.68-2.93s-.23-2.06-.68-2.95c-.45-.89-1.08-1.59-1.89-2.11s-1.72-.78-2.75-.78-1.96.26-2.81.79c-.85.53-1.52,1.23-2.02,2.11s-.75,1.86-.75,2.94.25,2.06.76,2.94c.51.88,1.18,1.58,2.03,2.1.85.52,1.78.78,2.79.78Z"/>
      <path class="cls-1" d="m55.9,28.48V8.48h4.88v1.78c.68-.72,1.49-1.29,2.44-1.71.95-.42,1.97-.63,3.06-.63,1.39,0,2.66.33,3.83.98,1.17.65,2.1,1.53,2.79,2.62.71-1.09,1.64-1.97,2.8-2.62,1.16-.65,2.43-.98,3.82-.98,1.47,0,2.8.36,3.99,1.07,1.19.71,2.15,1.67,2.86,2.86.71,1.19,1.07,2.52,1.07,3.99v12.64h-4.88v-11.34c0-.77-.19-1.48-.57-2.13-.38-.65-.89-1.17-1.52-1.56s-1.34-.59-2.13-.59-1.5.19-2.13.57c-.63.38-1.14.89-1.53,1.53-.39.64-.58,1.37-.58,2.18v11.34h-4.88v-11.34c0-.81-.19-1.54-.56-2.18-.37-.64-.88-1.15-1.52-1.53-.64-.38-1.35-.57-2.14-.57s-1.48.2-2.12.59c-.64.39-1.15.91-1.53,1.56-.38.65-.57,1.36-.57,2.13v11.34h-4.88Z"/>
      <path class="cls-1" d="m100.44,29c-1.84,0-3.52-.47-5.03-1.42-1.51-.95-2.72-2.22-3.62-3.82-.9-1.6-1.35-3.37-1.35-5.3,0-1.45.26-2.82.78-4.09s1.24-2.39,2.15-3.36c.91-.97,1.98-1.72,3.19-2.27,1.21-.55,2.51-.82,3.88-.82,1.56,0,2.99.33,4.29.99,1.3.66,2.4,1.56,3.31,2.71.91,1.15,1.57,2.45,1.98,3.92.41,1.47.51,3,.28,4.6h-14.62c.19.75.49,1.42.92,2.01.43.59.97,1.07,1.62,1.42.65.35,1.39.54,2.22.55.85.01,1.63-.19,2.33-.61.7-.42,1.28-.99,1.75-1.71l4.98,1.16c-.81,1.77-2.03,3.22-3.64,4.35-1.61,1.13-3.42,1.69-5.42,1.69Zm-4.92-12.52h9.84c-.15-.8-.46-1.52-.93-2.17-.47-.65-1.06-1.16-1.75-1.55-.69-.39-1.44-.58-2.24-.58s-1.54.19-2.22.57-1.26.89-1.73,1.54c-.47.65-.8,1.38-.97,2.19Z"/>
      <path class="cls-1" d="m134.1,29c-1.55,0-3.03-.24-4.45-.73s-2.66-1.19-3.73-2.1c-1.07-.91-1.83-2.01-2.3-3.29l4.58-1.68c.19.53.57,1.02,1.14,1.46s1.27.79,2.1,1.06c.83.27,1.71.4,2.66.4s1.88-.15,2.73-.45c.85-.3,1.53-.72,2.05-1.26.52-.54.78-1.17.78-1.89s-.27-1.34-.82-1.81c-.55-.47-1.25-.85-2.1-1.13-.85-.28-1.73-.49-2.64-.64-1.99-.31-3.77-.78-5.34-1.42s-2.82-1.53-3.73-2.66c-.91-1.13-1.37-2.6-1.37-4.4,0-1.69.49-3.17,1.46-4.44.97-1.27,2.25-2.25,3.84-2.96,1.59-.71,3.3-1.06,5.14-1.06,1.53,0,3.01.24,4.44.72,1.43.48,2.68,1.18,3.75,2.1s1.84,2.03,2.31,3.32l-4.6,1.66c-.19-.53-.57-1.02-1.14-1.46-.57-.44-1.27-.79-2.1-1.05-.83-.26-1.71-.39-2.66-.39-.95-.01-1.84.14-2.69.45-.85.31-1.54.74-2.07,1.27-.53.53-.8,1.15-.8,1.84,0,.89.25,1.57.75,2.02.5.45,1.17.78,2.01.99.84.21,1.77.4,2.8.57,1.87.29,3.59.79,5.18,1.48,1.59.69,2.86,1.62,3.82,2.77.96,1.15,1.44,2.56,1.44,4.23s-.48,3.18-1.44,4.45c-.96,1.27-2.23,2.26-3.82,2.97-1.59.71-3.31,1.06-5.18,1.06Z"/>
      <path class="cls-1" d="m162.92,8.48h5.18l-10.94,30h-5.18l3.62-10-7.2-20h5.34l4.3,13.32,4.88-13.32Z"/>
      <path class="cls-1" d="m178.2,28.84c-1.04-.07-2.04-.28-3.01-.63s-1.82-.84-2.57-1.45c-.75-.61-1.32-1.35-1.72-2.2l4.12-1.76c.16.27.42.55.78.85.36.3.79.55,1.29.75.5.2,1.05.3,1.65.3.51,0,.99-.07,1.45-.21.46-.14.83-.36,1.12-.65.29-.29.43-.67.43-1.14,0-.49-.17-.88-.51-1.15-.34-.27-.77-.48-1.28-.62-.51-.14-1.01-.27-1.49-.39-1.27-.25-2.44-.65-3.53-1.18-1.09-.53-1.96-1.22-2.62-2.07-.66-.85-.99-1.87-.99-3.07,0-1.32.35-2.46,1.05-3.42.7-.96,1.61-1.7,2.74-2.22s2.34-.78,3.65-.78c1.59,0,3.04.33,4.37.99s2.38,1.59,3.15,2.79l-3.86,2.28c-.19-.32-.45-.62-.78-.89-.33-.27-.71-.5-1.14-.68-.43-.18-.88-.28-1.34-.31-.6-.03-1.15.03-1.64.16-.49.13-.89.36-1.19.68-.3.32-.45.75-.45,1.28s.2.88.6,1.13c.4.25.88.44,1.45.57.57.13,1.11.28,1.63.44,1.17.39,2.28.86,3.31,1.42s1.86,1.25,2.49,2.06.93,1.79.9,2.92c0,1.29-.39,2.42-1.16,3.39-.77.97-1.77,1.7-2.99,2.21-1.22.51-2.52.71-3.91.6Z"/>
      <path class="cls-1" d="m200.6,13.36h-3.88v15.12h-4.88v-15.12h-2.96v-4.88h2.96V2.2h4.88v6.28h3.88v4.88Z"/>
      <path class="cls-1" d="m213.2,29c-1.84,0-3.52-.47-5.03-1.42-1.51-.95-2.72-2.22-3.62-3.82-.9-1.6-1.35-3.37-1.35-5.3,0-1.45.26-2.82.78-4.09.52-1.27,1.24-2.39,2.15-3.36.91-.97,1.98-1.72,3.19-2.27,1.21-.55,2.51-.82,3.88-.82,1.56,0,2.99.33,4.29.99,1.3.66,2.4,1.56,3.31,2.71.91,1.15,1.57,2.45,1.98,3.92.41,1.47.51,3,.28,4.6h-14.62c.19.75.49,1.42.92,2.01.43.59.97,1.07,1.62,1.42.65.35,1.39.54,2.22.55.85.01,1.63-.19,2.33-.61.7-.42,1.28-.99,1.75-1.71l4.98,1.16c-.81,1.77-2.03,3.22-3.64,4.35-1.61,1.13-3.42,1.69-5.42,1.69Zm-4.92-12.52h9.84c-.15-.8-.46-1.52-.93-2.17-.47-.65-1.06-1.16-1.75-1.55-.69-.39-1.44-.58-2.24-.58s-1.54.19-2.22.57c-.68.38-1.26.89-1.73,1.54-.47.65-.8,1.38-.97,2.19Z"/>
      <path class="cls-1" d="m226.98,28.48V8.48h4.88v1.78c.68-.72,1.49-1.29,2.44-1.71.95-.42,1.97-.63,3.06-.63,1.39,0,2.66.33,3.83.98,1.17.65,2.1,1.53,2.79,2.62.71-1.09,1.64-1.97,2.8-2.62,1.16-.65,2.43-.98,3.82-.98,1.47,0,2.8.36,3.99,1.07,1.19.71,2.15,1.67,2.86,2.86.71,1.19,1.07,2.52,1.07,3.99v12.64h-4.88v-11.34c0-.77-.19-1.48-.57-2.13-.38-.65-.89-1.17-1.52-1.56-.63-.39-1.34-.59-2.13-.59s-1.5.19-2.13.57c-.63.38-1.14.89-1.53,1.53-.39.64-.58,1.37-.58,2.18v11.34h-4.88v-11.34c0-.81-.19-1.54-.56-2.18s-.88-1.15-1.52-1.53c-.64-.38-1.35-.57-2.14-.57s-1.48.2-2.12.59c-.64.39-1.15.91-1.53,1.56-.38.65-.57,1.36-.57,2.13v11.34h-4.88Z"/>
    </g>
  </g>
</svg>