<?xml version="1.0" standalone="no"?><!DOCTYPE svg PUBLIC "-//W3C//DTD SVG 1.1//EN" "http://www.w3.org/Graphics/SVG/1.1/DTD/svg11.dtd"><svg t="1744783030151" class="icon" viewBox="0 0 1000 1000" version="1.1" xmlns="http://www.w3.org/2000/svg" p-id="3087" xmlns:xlink="http://www.w3.org/1999/xlink" width="200" height="200"><path d="M920.2838 721.9295c-9.42 0-17.6757-6.6355-19.5745-16.0251-0.2668-1.2601-13.3605-61.0206-69.1789-119.7338-71.0877-74.7763-181.0936-115.9104-319.0088-119.511v162.43786712608852c0 7.5129-4.2123 14.3892-10.9041 17.8029-6.6907 3.4127-14.7326 2.7881-20.8147-1.6219L97.6258 367.5008c-5.1797-3.7545-8.2487-9.7624-8.2557-16.16-0.007-6.3967 3.0491-12.4116 8.2208-16.177L480.7678 56.117c6.0791-4.426 14.128-5.0676 20.8297-1.6569 6.7027 3.4097 10.924 10.293 10.924 17.8129v172.47905919786385c24.6843 0.9094 67.7468 4.5709 117.668 17.8189 79.4594 21.0877 145.4324 57.8917 196.0901 109.3888 77.9573 79.2513 116.3139 190.3849 114.0044 330.313-0.1679 10.2121-8.0099 18.6544-18.1814 19.5747C921.493 721.9026 920.8844 721.9295 920.2838 721.9295zM492.5343 426.4279c88.5746 0 167.1135 13.9465 233.4333 41.4509 53.7468 22.2899 99.6105 53.4568 136.3142 92.6342 12.0513 12.8633 22.3078 25.7276 31.0252 38.1491-13.3045-81.0081-45.2642-147.5749-95.5261-198.6723-108.1751-109.9704-268.3481-115.5417-299.3573-115.5417-3.3079 0-5.1247 0.065-5.1427 0.065-5.4315 0.1939-10.7042-1.8188-14.6107-5.5852-3.9065-3.7674-6.1231-8.9599-6.1231-14.3862V111.55336681729784L143.3597 351.2828l329.1873 238.6382V446.4143310835253C472.547 435.3768 481.4953 426.4279 492.5343 426.4279z" p-id="3088"></path></svg>