<?xml version="1.0" standalone="no"?><!DOCTYPE svg PUBLIC "-//W3C//DTD SVG 1.1//EN" "http://www.w3.org/Graphics/SVG/1.1/DTD/svg11.dtd"><svg t="1749182949521" class="icon" viewBox="0 0 1024 1024" version="1.1" xmlns="http://www.w3.org/2000/svg" p-id="1794" xmlns:xlink="http://www.w3.org/1999/xlink" width="200" height="200"><path d="M857.6 151.04H166.4a38.4 38.4 0 0 0-38.2976 40.9088l44.9024 687.616a140.8 140.8 0 0 0 140.544 131.6352h396.9024a140.8 140.8 0 0 0 140.544-131.584l44.9024-687.6672a38.4 38.4 0 0 0-38.2976-40.9088z m-650.24 76.8h609.2288l-42.24 646.7584a64 64 0 0 1-63.8976 59.8016H313.5488l-6.656-0.3584a64 64 0 0 1-57.2416-59.4432L207.36 227.84z" fill="#333333" p-id="1795"></path><path d="M419.84 381.44a38.4 38.4 0 0 1 38.0416 33.1776l0.3584 5.2224v299.52a38.4 38.4 0 0 1-76.4416 5.2224l-0.3584-5.2224V419.84a38.4 38.4 0 0 1 38.4-38.4zM604.16 381.44a38.4 38.4 0 0 1 38.0416 33.1776l0.3584 5.2224v299.52a38.4 38.4 0 0 1-76.4416 5.2224l-0.3584-5.2224V419.84a38.4 38.4 0 0 1 38.4-38.4zM972.8 151.04a38.4 38.4 0 0 1 5.2224 76.4416L972.8 227.84H51.2a38.4 38.4 0 0 1-5.2224-76.4416L51.2 151.04h921.6z" fill="#333333" p-id="1796"></path><path d="M622.08 12.8H403.456a38.4 38.4 0 0 0-33.6896 19.968l-75.776 138.24A38.4 38.4 0 0 0 327.68 227.84h368.64a38.4 38.4 0 0 0 33.792-56.576l-74.24-138.24a38.4 38.4 0 0 0-33.792-20.224z m-22.9888 76.8l33.024 61.44H392.448l33.6896-61.44h172.9536z" fill="#333333" p-id="1797"></path></svg>