<?xml version="1.0" standalone="no"?><!DOCTYPE svg PUBLIC "-//W3C//DTD SVG 1.1//EN" "http://www.w3.org/Graphics/SVG/1.1/DTD/svg11.dtd"><svg t="1749299846573" class="icon" viewBox="0 0 1024 1024" version="1.1" xmlns="http://www.w3.org/2000/svg" p-id="4263" xmlns:xlink="http://www.w3.org/1999/xlink" width="200" height="200"><path d="M1009.92 431.2576L569.1904 21.2992a87.3472 87.3472 0 0 0-114.2784 0L14.08 431.2576a40.192 40.192 0 0 0-3.072 58.112 43.5712 43.5712 0 0 0 60.16 3.0208L512 82.432l440.832 409.9584a43.5712 43.5712 0 0 0 60.16-3.0208 40.192 40.192 0 0 0-3.072-58.112z m-117.76 152.0128c-23.552 0-42.5984 18.432-42.5984 41.216v317.0816h-169.3696v-274.7392c0-45.568-38.144-82.432-85.2992-82.432H429.1072c-47.1552 0-85.2992 36.864-85.2992 82.432v274.7392H174.4384v-317.0816a41.9328 41.9328 0 0 0-42.6496-41.216c-23.552 0-42.5984 18.432-42.5984 41.216v317.0816c0 45.568 38.0928 82.432 85.248 82.432h675.1232c47.104 0 85.248-36.864 85.248-82.432v-317.0816a41.9328 41.9328 0 0 0-42.5984-41.216z m-463.0528 83.5584h165.7856v274.7392H429.1072v-274.7392z" fill="#666666" p-id="4264"></path></svg>