<svg id="_レイヤー_1" data-name="レイヤー 1" xmlns="http://www.w3.org/2000/svg" viewBox="0 0 1913.8 376.9"
    class="active">
    <g id="reload_text">
        <g>
            <path class="cls-1 svg-elem-1"
                d="M255.7,374.9v3.1c-6.6,1-28,2-41.8,2c-33.6,0-42.8-18.3-105.9-153.3c-9.7-19.4-20.4-22.9-36.7-22.9H44.8v110.5c0,37.7,1.5,60.6,36.2,60.6v3.1H-36.7v-3.1C-2,374.9,0,351.9,0,314.3V70.8c0-37.7-2-60.6-36.7-60.6V7.1H89.6c78.4,0,123.8,38.7,123.8,97.8c0,50.4-38.7,81.5-83,93.7v1c14.8,9.2,27,30.6,38.2,52.5C218,347.4,228.7,365.7,255.7,374.9L255.7,374.9z M44.8,195.6H83c55.5,0,83-32.1,83-87.6c0-53.5-25.5-92.7-82.5-92.7H64.2c-12.2,0-19.4,6.1-19.4,18.3C44.8,33.6,44.8,195.6,44.8,195.6z"></path>
            <path class="cls-1 svg-elem-2"
                d="M562.9,292.4l-11.7,85.6H294.5v-3.1c34.6,0,36.7-22.9,36.7-60.6V70.8c0-37.7-2-60.6-36.7-60.6V7.1h249.1l6.6,76.4h-3.1c-26-58.1-42.8-68.3-98.3-68.3H376v165.5h57c45.8,0,56-12.2,64.7-49.9h3.1v111.5h-3.1C489,206.3,478.8,189,433,189h-57v156.9c0,15.3,4.6,23.9,20.4,23.9h60.1c54,0,73.3-9.2,103.4-77.4L562.9,292.4L562.9,292.4z"></path>
            <path class="cls-1 svg-elem-3"
                d="M603.1,377.9v-3.1c34.6,0,36.7-22.9,36.7-60.6V70.8c0-37.7-2-60.6-36.7-60.6V7.1h118.2v3.1c-34.6,0-36.7,22.9-36.7,60.6v275.1c0,15.8,4.6,23.9,19.9,23.9h35.7c55,0,75.9-12.2,107.5-82h3.1l-12.7,90.2L603.1,377.9L603.1,377.9z"></path>
            <path class="cls-1 svg-elem-4"
                d="M890.4,193.5C890.4,79.4,957.2,1,1056,1c99.8,0,165,74.4,165,190.5c0,114.1-67.2,192.5-166,192.5C955.1,384,890.4,309.7,890.4,193.5L890.4,193.5z M1170.6,192.5c0-102.9-41.3-184.4-115.6-184.4S940.4,86.6,940.4,192.5c0,102.9,41.8,184.4,115.6,184.4C1130.4,376.9,1170.6,298.5,1170.6,192.5L1170.6,192.5z"></path>
            <path class="cls-1 svg-elem-5"
                d="M1495.2,312.7c15.3,42.8,25,60.1,46.4,62.1v3.1h-116.1v-3.1c28.5-2,37.7-18.8,27-49.9l-27-76.9h-120.2l-12.2,34.6c-20.9,60.1-21.4,89.1,15.3,92.2v3.1h-84v-3.1c24.4-2.5,37.7-33.6,59.1-95.2L1381.7,2h4.1L1495.2,312.7z M1309.3,235.8h112.1l-56-160.4L1309.3,235.8L1309.3,235.8z"></path>
            <path class="cls-1 svg-elem-6"
                d="M1582.2,377.9v-3.1c34.6,0,36.7-22.9,36.7-60.6V70.8c0-37.7-2-60.6-36.7-60.6V7.1h147.7c116.1,0,182.9,66.2,182.9,180.8c0,117.2-73.9,190-185.9,190L1582.2,377.9L1582.2,377.9z M1862.3,191c0-102.4-43.3-175.7-136-175.7H1683c-12.2,0-19.4,6.1-19.4,18.3v303.6c0,23.4,13.2,32.6,65.2,32.6C1820.1,369.8,1862.3,300.5,1862.3,191L1862.3,191z"></path>
        </g>
    </g>
</svg>